{"glyphs":{"0":{"ha":1620,"x_min":0,"x_max":1389,"o":"m 1157 231 l 1157 1620 l 1389 1620 l 1389 231 l 1157 231 m 231 0 l 231 231 l 0 231 l 0 1620 l 231 1620 l 231 1852 l 1157 1852 l 1157 1620 l 463 1620 l 463 231 l 1157 231 l 1157 0 l 231 0 z "},"1":{"ha":1389,"x_min":231,"x_max":1157,"o":"m 231 1157 l 231 1389 l 463 1389 l 463 1157 l 231 1157 m 694 0 l 694 1389 l 463 1389 l 463 1620 l 694 1620 l 694 1852 l 1157 1852 l 1157 0 l 694 0 z "},"2":{"ha":1620,"x_min":0,"x_max":1389,"o":"m 0 0 l 0 694 l 231 694 l 231 926 l 694 926 l 694 694 l 463 694 l 463 231 l 1389 231 l 1389 0 l 0 0 m 694 926 l 694 1157 l 1157 1157 l 1157 926 l 694 926 m 1157 1157 l 1157 1620 l 1389 1620 l 1389 1157 l 1157 1157 m 0 1620 l 0 1852 l 1157 1852 l 1157 1620 l 0 1620 z "},"3":{"ha":1620,"x_min":0,"x_max":1389,"o":"m 0 0 l 0 231 l 926 231 l 926 926 l 231 926 l 231 1157 l 926 1157 l 926 1620 l 0 1620 l 0 1852 l 1157 1852 l 1157 1620 l 1389 1620 l 1389 1157 l 1157 1157 l 1157 926 l 1389 926 l 1389 231 l 1157 231 l 1157 0 l 0 0 z "},"4":{"ha":1620,"x_min":0,"x_max":1389,"o":"m 231 1157 l 231 1389 l 463 1389 l 463 1157 l 231 1157 m 694 0 l 694 694 l 0 694 l 0 1157 l 231 1157 l 231 926 l 694 926 l 694 1389 l 463 1389 l 463 1620 l 694 1620 l 694 1852 l 1157 1852 l 1157 926 l 1389 926 l 1389 694 l 1157 694 l 1157 0 l 694 0 z "},"5":{"ha":1620,"x_min":0,"x_max":1389,"o":"m 231 0 l 231 231 l 1157 231 l 1157 0 l 231 0 m 0 231 l 0 463 l 231 463 l 231 231 l 0 231 m 1157 231 l 1157 926 l 1389 926 l 1389 231 l 1157 231 m 0 926 l 0 1852 l 1389 1852 l 1389 1620 l 463 1620 l 463 1157 l 1157 1157 l 1157 926 l 0 926 z "},"6":{"ha":1620,"x_min":0,"x_max":1389,"o":"m 1157 231 l 1157 694 l 1389 694 l 1389 231 l 1157 231 m 1157 1389 l 1157 1620 l 1389 1620 l 1389 1389 l 1157 1389 m 231 0 l 231 231 l 0 231 l 0 1620 l 231 1620 l 231 1852 l 1157 1852 l 1157 1620 l 463 1620 l 463 926 l 1157 926 l 1157 694 l 463 694 l 463 231 l 1157 231 l 1157 0 l 231 0 z "},"7":{"ha":1620,"x_min":0,"x_max":1389,"o":"m 231 0 l 231 463 l 463 463 l 463 926 l 694 926 l 694 1389 l 926 1389 l 926 1620 l 0 1620 l 0 1852 l 1389 1852 l 1389 1389 l 1157 1389 l 1157 926 l 926 926 l 926 463 l 694 463 l 694 0 l 231 0 z "},"8":{"ha":1620,"x_min":0,"x_max":1389,"o":"m 1157 231 l 1157 926 l 1389 926 l 1389 231 l 1157 231 m 1157 1157 l 1157 1620 l 1389 1620 l 1389 1157 l 1157 1157 m 231 0 l 231 231 l 0 231 l 0 926 l 231 926 l 231 1157 l 0 1157 l 0 1620 l 231 1620 l 231 1852 l 1157 1852 l 1157 1620 l 463 1620 l 463 1157 l 1157 1157 l 1157 926 l 463 926 l 463 231 l 1157 231 l 1157 0 l 231 0 z "},"9":{"ha":1620,"x_min":0,"x_max":1389,"o":"m 231 0 l 231 231 l 1157 231 l 1157 0 l 231 0 m 0 231 l 0 463 l 231 463 l 231 231 l 0 231 m 1157 231 l 1157 926 l 231 926 l 231 1157 l 0 1157 l 0 1620 l 231 1620 l 231 1852 l 1157 1852 l 1157 1620 l 463 1620 l 463 1157 l 1157 1157 l 1157 1620 l 1389 1620 l 1389 231 l 1157 231 z "}," ":{"ha":694,"x_min":0,"x_max":0,"o":""},"!":{"ha":1157,"x_min":463,"x_max":926,"o":"m 463 0 l 463 231 l 926 231 l 926 0 l 463 0 m 463 463 l 463 1852 l 926 1852 l 926 463 l 463 463 z "},"\"":{"ha":1157,"x_min":231,"x_max":926,"o":"m 231 1157 l 231 1852 l 463 1852 l 463 1157 l 231 1157 m 694 1157 l 694 1852 l 926 1852 l 926 1157 l 694 1157 z "},"#":{"ha":1620,"x_min":0,"x_max":1389,"o":"m 926 694 l 926 1157 l 463 1157 l 463 694 l 926 694 m 231 0 l 231 463 l 0 463 l 0 694 l 231 694 l 231 1157 l 0 1157 l 0 1389 l 231 1389 l 231 1852 l 463 1852 l 463 1389 l 926 1389 l 926 1852 l 1157 1852 l 1157 1389 l 1389 1389 l 1389 1157 l 1157 1157 l 1157 694 l 1389 694 l 1389 463 l 1157 463 l 1157 0 l 926 0 l 926 463 l 463 463 l 463 0 l 231 0 z "},"$":{"ha":1389,"x_min":0,"x_max":1157,"o":"m 926 463 l 926 926 l 1157 926 l 1157 463 l 926 463 m 0 1157 l 0 1389 l 231 1389 l 231 1157 l 0 1157 m 463 0 l 463 231 l 0 231 l 0 463 l 463 463 l 463 926 l 231 926 l 231 1157 l 463 1157 l 463 1389 l 231 1389 l 231 1620 l 463 1620 l 463 1852 l 694 1852 l 694 1620 l 1157 1620 l 1157 1389 l 694 1389 l 694 1157 l 926 1157 l 926 926 l 694 926 l 694 463 l 926 463 l 926 231 l 694 231 l 694 0 l 463 0 z "},"%":{"ha":2083,"x_min":0,"x_max":1852,"o":"m 0 0 l 0 231 l 231 231 l 231 0 l 0 0 m 1157 0 l 1157 231 l 1620 231 l 1620 0 l 1157 0 m 231 231 l 231 463 l 463 463 l 463 231 l 231 231 m 463 463 l 463 694 l 694 694 l 694 463 l 463 463 m 926 231 l 926 694 l 1157 694 l 1157 231 l 926 231 m 1620 231 l 1620 694 l 1852 694 l 1852 231 l 1620 231 m 694 694 l 694 926 l 926 926 l 926 694 l 694 694 m 1157 694 l 1157 926 l 1620 926 l 1620 694 l 1157 694 m 231 926 l 231 1157 l 694 1157 l 694 926 l 231 926 m 926 926 l 926 1157 l 1157 1157 l 1157 926 l 926 926 m 1157 1157 l 1157 1389 l 1389 1389 l 1389 1157 l 1157 1157 m 0 1157 l 0 1620 l 231 1620 l 231 1157 l 0 1157 m 694 1157 l 694 1620 l 926 1620 l 926 1157 l 694 1157 m 1389 1389 l 1389 1620 l 1620 1620 l 1620 1389 l 1389 1389 m 231 1620 l 231 1852 l 694 1852 l 694 1620 l 231 1620 m 1620 1620 l 1620 1852 l 1852 1852 l 1852 1620 l 1620 1620 z "},"&":{"ha":1620,"x_min":0,"x_max":1389,"o":"m 231 0 l 231 231 l 926 231 l 926 0 l 231 0 m 1157 0 l 1157 231 l 1389 231 l 1389 0 l 1157 0 m 926 231 l 926 463 l 1157 463 l 1157 231 l 926 231 m 694 463 l 694 694 l 926 694 l 926 463 l 694 463 m 1157 463 l 1157 694 l 1389 694 l 1389 463 l 1157 463 m 0 231 l 0 926 l 231 926 l 231 231 l 0 231 m 463 694 l 463 926 l 231 926 l 231 1157 l 1157 1157 l 1157 926 l 694 926 l 694 694 l 463 694 m 0 1157 l 0 1620 l 231 1620 l 231 1157 l 0 1157 m 1157 1157 l 1157 1620 l 1389 1620 l 1389 1157 l 1157 1157 m 231 1620 l 231 1852 l 1157 1852 l 1157 1620 l 231 1620 z "},"'":{"ha":1157,"x_min":231,"x_max":926,"o":"m 231 1157 l 231 1389 l 463 1389 l 463 1157 l 231 1157 m 463 1389 l 463 1620 l 694 1620 l 694 1389 l 463 1389 m 694 1620 l 694 1852 l 926 1852 l 926 1620 l 694 1620 z "},"(":{"ha":694,"x_min":0,"x_max":463,"o":"m 231 0 l 231 231 l 463 231 l 463 0 l 231 0 m 0 231 l 0 1620 l 231 1620 l 231 231 l 0 231 m 231 1620 l 231 1852 l 463 1852 l 463 1620 l 231 1620 z "},")":{"ha":694,"x_min":0,"x_max":463,"o":"m 0 0 l 0 231 l 231 231 l 231 0 l 0 0 m 231 231 l 231 1620 l 463 1620 l 463 231 l 231 231 m 0 1620 l 0 1852 l 231 1852 l 231 1620 l 0 1620 z "},"*":{"ha":1852,"x_min":231,"x_max":1620,"o":"m 231 926 l 231 1157 l 463 1157 l 463 926 l 231 926 m 463 1157 l 463 1389 l 694 1389 l 694 1157 l 463 1157 m 231 1389 l 231 1620 l 463 1620 l 463 1389 l 231 1389 m 926 926 l 926 1620 l 1157 1620 l 1157 1389 l 1389 1389 l 1389 1157 l 1157 1157 l 1157 926 l 926 926 m 1389 1389 l 1389 1620 l 1620 1620 l 1620 1389 l 1389 1389 m 463 1620 l 463 1852 l 694 1852 l 694 1620 l 463 1620 m 1157 1620 l 1157 1852 l 1389 1852 l 1389 1620 l 1157 1620 z "},"+":{"ha":1389,"x_min":0,"x_max":1157,"o":"m 463 231 l 463 694 l 0 694 l 0 926 l 463 926 l 463 1389 l 694 1389 l 694 926 l 1157 926 l 1157 694 l 694 694 l 694 231 l 463 231 z "},",":{"ha":694,"x_min":0,"x_max":463,"o":"m 0 -463 l 0 -231 l 231 -231 l 231 -463 l 0 -463 m 231 -231 l 231 231 l 463 231 l 463 -231 l 231 -231 z "},"-":{"ha":1389,"x_min":0,"x_max":1157,"o":"m 0 694 l 0 926 l 1157 926 l 1157 694 l 0 694 z "},".":{"ha":463,"x_min":0,"x_max":231,"o":"m 0 0 l 0 231 l 231 231 l 231 0 l 0 0 z "},"/":{"ha":1157,"x_min":0,"x_max":926,"o":"m 0 0 l 0 463 l 231 463 l 231 0 l 0 0 m 231 463 l 231 926 l 463 926 l 463 463 l 231 463 m 463 926 l 463 1389 l 694 1389 l 694 926 l 463 926 m 694 1389 l 694 1852 l 926 1852 l 926 1389 l 694 1389 z "},":":{"ha":694,"x_min":0,"x_max":463,"o":"m 0 0 l 0 463 l 463 463 l 463 0 l 0 0 m 0 1389 l 0 1852 l 463 1852 l 463 1389 l 0 1389 z "},";":{"ha":926,"x_min":0,"x_max":694,"o":"m 0 -231 l 0 0 l 231 0 l 231 463 l 694 463 l 694 0 l 463 0 l 463 -231 l 0 -231 m 231 1389 l 231 1852 l 694 1852 l 694 1389 l 231 1389 z "},"<":{"ha":1157,"x_min":0,"x_max":926,"o":"m 694 0 l 694 231 l 926 231 l 926 0 l 694 0 m 463 231 l 463 463 l 694 463 l 694 231 l 463 231 m 231 463 l 231 694 l 463 694 l 463 463 l 231 463 m 0 694 l 0 926 l 231 926 l 231 694 l 0 694 m 231 926 l 231 1157 l 463 1157 l 463 926 l 231 926 m 463 1157 l 463 1389 l 694 1389 l 694 1157 l 463 1157 m 694 1389 l 694 1620 l 926 1620 l 926 1389 l 694 1389 z "},"=":{"ha":1389,"x_min":0,"x_max":1157,"o":"m 0 463 l 0 694 l 1157 694 l 1157 463 l 0 463 m 0 926 l 0 1157 l 1157 1157 l 1157 926 l 0 926 z "},">":{"ha":1157,"x_min":0,"x_max":926,"o":"m 0 0 l 0 231 l 231 231 l 231 0 l 0 0 m 231 231 l 231 463 l 463 463 l 463 231 l 231 231 m 463 463 l 463 694 l 694 694 l 694 463 l 463 463 m 694 694 l 694 926 l 926 926 l 926 694 l 694 694 m 463 926 l 463 1157 l 694 1157 l 694 926 l 463 926 m 231 1157 l 231 1389 l 463 1389 l 463 1157 l 231 1157 m 0 1389 l 0 1620 l 231 1620 l 231 1389 l 0 1389 z "},"?":{"ha":1620,"x_min":0,"x_max":1389,"o":"m 463 0 l 463 231 l 926 231 l 926 0 l 463 0 m 0 1389 l 0 1620 l 231 1620 l 231 1389 l 0 1389 m 463 463 l 463 926 l 694 926 l 694 1157 l 926 1157 l 926 1620 l 231 1620 l 231 1852 l 1157 1852 l 1157 1620 l 1389 1620 l 1389 1157 l 1157 1157 l 1157 926 l 926 926 l 926 463 l 463 463 z "},"@":{"ha":2315,"x_min":0,"x_max":2083,"o":"m 1389 231 l 1389 694 l 926 694 l 926 231 l 1389 231 m 0 231 l 0 1620 l 231 1620 l 231 231 l 0 231 m 1852 231 l 1852 1620 l 2083 1620 l 2083 231 l 1852 231 m 231 0 l 231 231 l 463 231 l 463 1389 l 694 1389 l 694 1620 l 231 1620 l 231 1852 l 1852 1852 l 1852 1620 l 1389 1620 l 1389 1389 l 926 1389 l 926 926 l 1389 926 l 1389 1389 l 1620 1389 l 1620 231 l 1852 231 l 1852 0 l 231 0 z "},"A":{"ha":1620,"x_min":0,"x_max":1389,"o":"m 0 0 l 0 1389 l 231 1389 l 231 1620 l 1157 1620 l 1157 1389 l 463 1389 l 463 926 l 1157 926 l 1157 1389 l 1389 1389 l 1389 0 l 1157 0 l 1157 694 l 463 694 l 463 0 l 0 0 z "},"B":{"ha":1620,"x_min":0,"x_max":1389,"o":"m 1157 231 l 1157 694 l 1389 694 l 1389 231 l 1157 231 m 1157 926 l 1157 1389 l 1389 1389 l 1389 926 l 1157 926 m 0 0 l 0 1620 l 1157 1620 l 1157 1389 l 463 1389 l 463 926 l 1157 926 l 1157 694 l 463 694 l 463 231 l 1157 231 l 1157 0 l 0 0 z "},"C":{"ha":1620,"x_min":0,"x_max":1389,"o":"m 231 0 l 231 231 l 0 231 l 0 1389 l 231 1389 l 231 1620 l 1389 1620 l 1389 1389 l 463 1389 l 463 231 l 1389 231 l 1389 0 l 231 0 z "},"D":{"ha":1620,"x_min":0,"x_max":1389,"o":"m 1157 231 l 1157 1389 l 1389 1389 l 1389 231 l 1157 231 m 0 0 l 0 1620 l 1157 1620 l 1157 1389 l 463 1389 l 463 231 l 1157 231 l 1157 0 l 0 0 z "},"E":{"ha":1620,"x_min":0,"x_max":1389,"o":"m 0 0 l 0 1620 l 1389 1620 l 1389 1389 l 463 1389 l 463 926 l 926 926 l 926 694 l 463 694 l 463 231 l 1389 231 l 1389 0 l 0 0 z "},"F":{"ha":1620,"x_min":0,"x_max":1389,"o":"m 0 0 l 0 1620 l 1389 1620 l 1389 1389 l 463 1389 l 463 926 l 926 926 l 926 694 l 463 694 l 463 0 l 0 0 z "},"G":{"ha":1620,"x_min":0,"x_max":1389,"o":"m 231 0 l 231 231 l 0 231 l 0 1389 l 231 1389 l 231 1620 l 1389 1620 l 1389 1389 l 463 1389 l 463 231 l 1157 231 l 1157 463 l 694 463 l 694 694 l 1389 694 l 1389 0 l 231 0 z "},"H":{"ha":1620,"x_min":0,"x_max":1389,"o":"m 0 0 l 0 1620 l 463 1620 l 463 926 l 1157 926 l 1157 1620 l 1389 1620 l 1389 0 l 1157 0 l 1157 694 l 463 694 l 463 0 l 0 0 z "},"I":{"ha":1620,"x_min":0,"x_max":1389,"o":"m 0 0 l 0 231 l 463 231 l 463 1389 l 0 1389 l 0 1620 l 1389 1620 l 1389 1389 l 926 1389 l 926 231 l 1389 231 l 1389 0 l 0 0 z "},"J":{"ha":1620,"x_min":0,"x_max":1389,"o":"m 0 0 l 0 463 l 231 463 l 231 231 l 926 231 l 926 1620 l 1389 1620 l 1389 0 l 0 0 z "},"K":{"ha":1620,"x_min":0,"x_max":1389,"o":"m 1157 0 l 1157 231 l 1389 231 l 1389 0 l 1157 0 m 926 231 l 926 463 l 1157 463 l 1157 231 l 926 231 m 694 463 l 694 694 l 926 694 l 926 463 l 694 463 m 694 926 l 694 1157 l 926 1157 l 926 926 l 694 926 m 926 1157 l 926 1389 l 1157 1389 l 1157 1157 l 926 1157 m 0 0 l 0 1620 l 463 1620 l 463 926 l 694 926 l 694 694 l 463 694 l 463 0 l 0 0 m 1157 1389 l 1157 1620 l 1389 1620 l 1389 1389 l 1157 1389 z "},"L":{"ha":1620,"x_min":0,"x_max":1389,"o":"m 0 0 l 0 1620 l 463 1620 l 463 231 l 1389 231 l 1389 0 l 0 0 z "},"M":{"ha":1620,"x_min":0,"x_max":1389,"o":"m 694 926 l 694 1157 l 926 1157 l 926 926 l 694 926 m 0 0 l 0 1620 l 463 1620 l 463 1389 l 694 1389 l 694 1157 l 463 1157 l 463 0 l 0 0 m 1157 0 l 1157 1157 l 926 1157 l 926 1389 l 1157 1389 l 1157 1620 l 1389 1620 l 1389 0 l 1157 0 z "},"N":{"ha":1620,"x_min":0,"x_max":1389,"o":"m 694 463 l 694 926 l 926 926 l 926 463 l 694 463 m 0 0 l 0 1620 l 463 1620 l 463 1389 l 694 1389 l 694 926 l 463 926 l 463 0 l 0 0 m 926 0 l 926 463 l 1157 463 l 1157 1620 l 1389 1620 l 1389 0 l 926 0 z "},"O":{"ha":1620,"x_min":0,"x_max":1389,"o":"m 1157 231 l 1157 1389 l 1389 1389 l 1389 231 l 1157 231 m 231 0 l 231 231 l 0 231 l 0 1389 l 231 1389 l 231 1620 l 1157 1620 l 1157 1389 l 463 1389 l 463 231 l 1157 231 l 1157 0 l 231 0 z "},"P":{"ha":1620,"x_min":0,"x_max":1389,"o":"m 1157 694 l 1157 1389 l 1389 1389 l 1389 694 l 1157 694 m 0 0 l 0 1620 l 1157 1620 l 1157 1389 l 463 1389 l 463 694 l 1157 694 l 1157 463 l 463 463 l 463 0 l 0 0 z "},"Q":{"ha":1620,"x_min":0,"x_max":1389,"o":"m 1157 0 l 1157 231 l 1389 231 l 1389 0 l 1157 0 m 926 231 l 926 463 l 1157 463 l 1157 231 l 926 231 m 1157 463 l 1157 1389 l 1389 1389 l 1389 463 l 1157 463 m 231 0 l 231 231 l 0 231 l 0 1389 l 231 1389 l 231 1620 l 1157 1620 l 1157 1389 l 463 1389 l 463 231 l 926 231 l 926 0 l 231 0 z "},"R":{"ha":1620,"x_min":0,"x_max":1389,"o":"m 1157 0 l 1157 463 l 1389 463 l 1389 0 l 1157 0 m 1157 694 l 1157 1389 l 1389 1389 l 1389 694 l 1157 694 m 0 0 l 0 1620 l 1157 1620 l 1157 1389 l 463 1389 l 463 694 l 1157 694 l 1157 463 l 463 463 l 463 0 l 0 0 z "},"S":{"ha":1620,"x_min":0,"x_max":1389,"o":"m 0 0 l 0 231 l 1157 231 l 1157 0 l 0 0 m 1157 231 l 1157 694 l 1389 694 l 1389 231 l 1157 231 m 231 694 l 231 926 l 0 926 l 0 1389 l 231 1389 l 231 1620 l 1389 1620 l 1389 1389 l 463 1389 l 463 926 l 1157 926 l 1157 694 l 231 694 z "},"T":{"ha":1620,"x_min":0,"x_max":1389,"o":"m 463 0 l 463 1389 l 0 1389 l 0 1620 l 1389 1620 l 1389 1389 l 926 1389 l 926 0 l 463 0 z "},"U":{"ha":1620,"x_min":0,"x_max":1389,"o":"m 231 0 l 231 231 l 0 231 l 0 1620 l 463 1620 l 463 231 l 1157 231 l 1157 0 l 231 0 m 1157 231 l 1157 1620 l 1389 1620 l 1389 231 l 1157 231 z "},"V":{"ha":1620,"x_min":0,"x_max":1389,"o":"m 926 231 l 926 463 l 1157 463 l 1157 231 l 926 231 m 463 0 l 463 231 l 231 231 l 231 463 l 0 463 l 0 1620 l 463 1620 l 463 463 l 694 463 l 694 231 l 926 231 l 926 0 l 463 0 m 1157 463 l 1157 1620 l 1389 1620 l 1389 463 l 1157 463 z "},"W":{"ha":1620,"x_min":0,"x_max":1389,"o":"m 926 0 l 926 231 l 1157 231 l 1157 0 l 926 0 m 694 231 l 694 694 l 926 694 l 926 231 l 694 231 m 231 0 l 231 231 l 0 231 l 0 1620 l 463 1620 l 463 231 l 694 231 l 694 0 l 231 0 m 1157 231 l 1157 1620 l 1389 1620 l 1389 231 l 1157 231 z "},"X":{"ha":1620,"x_min":0,"x_max":1389,"o":"m 1157 0 l 1157 463 l 1389 463 l 1389 0 l 1157 0 m 926 463 l 926 694 l 1157 694 l 1157 463 l 926 463 m 926 926 l 926 1157 l 1157 1157 l 1157 926 l 926 926 m 0 0 l 0 463 l 231 463 l 231 694 l 463 694 l 463 926 l 231 926 l 231 1157 l 0 1157 l 0 1620 l 463 1620 l 463 1157 l 694 1157 l 694 926 l 926 926 l 926 694 l 694 694 l 694 463 l 463 463 l 463 0 l 0 0 m 1157 1157 l 1157 1620 l 1389 1620 l 1389 1157 l 1157 1157 z "},"Y":{"ha":1620,"x_min":0,"x_max":1389,"o":"m 926 694 l 926 926 l 1157 926 l 1157 694 l 926 694 m 463 0 l 463 694 l 231 694 l 231 926 l 0 926 l 0 1620 l 463 1620 l 463 926 l 694 926 l 694 694 l 926 694 l 926 0 l 463 0 m 1157 926 l 1157 1620 l 1389 1620 l 1389 926 l 1157 926 z "},"Z":{"ha":1620,"x_min":0,"x_max":1389,"o":"m 0 0 l 0 463 l 231 463 l 231 694 l 463 694 l 463 926 l 694 926 l 694 1157 l 926 1157 l 926 1389 l 0 1389 l 0 1620 l 1389 1620 l 1389 1157 l 1157 1157 l 1157 926 l 926 926 l 926 694 l 694 694 l 694 463 l 463 463 l 463 231 l 1389 231 l 1389 0 l 0 0 z "},"[":{"ha":926,"x_min":0,"x_max":694,"o":"m 0 0 l 0 1852 l 694 1852 l 694 1620 l 231 1620 l 231 231 l 694 231 l 694 0 l 0 0 z "},"\\":{"ha":1157,"x_min":0,"x_max":926,"o":"m 694 0 l 694 463 l 926 463 l 926 0 l 694 0 m 463 463 l 463 926 l 694 926 l 694 463 l 463 463 m 231 926 l 231 1389 l 463 1389 l 463 926 l 231 926 m 0 1389 l 0 1852 l 231 1852 l 231 1389 l 0 1389 z "},"]":{"ha":926,"x_min":0,"x_max":694,"o":"m 0 0 l 0 231 l 463 231 l 463 1620 l 0 1620 l 0 1852 l 694 1852 l 694 0 l 0 0 z "},"^":{"ha":1389,"x_min":0,"x_max":1157,"o":"m 0 1157 l 0 1389 l 231 1389 l 231 1157 l 0 1157 m 926 1157 l 926 1389 l 1157 1389 l 1157 1157 l 926 1157 m 231 1389 l 231 1620 l 463 1620 l 463 1389 l 231 1389 m 694 1389 l 694 1620 l 926 1620 l 926 1389 l 694 1389 m 463 1620 l 463 1852 l 694 1852 l 694 1620 l 463 1620 z "},"_":{"ha":1620,"x_min":0,"x_max":1389,"o":"m 0 0 l 0 231 l 1389 231 l 1389 0 l 0 0 z "},"`":{"ha":1157,"x_min":231,"x_max":926,"o":"m 694 1157 l 694 1389 l 926 1389 l 926 1157 l 694 1157 m 463 1389 l 463 1620 l 694 1620 l 694 1389 l 463 1389 m 231 1620 l 231 1852 l 463 1852 l 463 1620 l 231 1620 z "},"a":{"ha":1389,"x_min":0,"x_max":1157,"o":"m 0 0 l 0 1157 l 231 1157 l 231 1389 l 926 1389 l 926 1157 l 463 1157 l 463 694 l 926 694 l 926 1157 l 1157 1157 l 1157 0 l 926 0 l 926 463 l 463 463 l 463 0 l 0 0 z "},"b":{"ha":1389,"x_min":0,"x_max":1157,"o":"m 926 231 l 926 694 l 1157 694 l 1157 231 l 926 231 m 926 926 l 926 1157 l 1157 1157 l 1157 926 l 926 926 m 0 0 l 0 1389 l 926 1389 l 926 1157 l 463 1157 l 463 926 l 926 926 l 926 694 l 463 694 l 463 231 l 926 231 l 926 0 l 0 0 z "},"c":{"ha":1389,"x_min":0,"x_max":1157,"o":"m 231 0 l 231 231 l 0 231 l 0 1157 l 231 1157 l 231 1389 l 1157 1389 l 1157 1157 l 463 1157 l 463 231 l 1157 231 l 1157 0 l 231 0 z "},"d":{"ha":1389,"x_min":0,"x_max":1157,"o":"m 926 231 l 926 1157 l 1157 1157 l 1157 231 l 926 231 m 0 0 l 0 1389 l 926 1389 l 926 1157 l 463 1157 l 463 231 l 926 231 l 926 0 l 0 0 z "},"e":{"ha":1389,"x_min":0,"x_max":1157,"o":"m 0 0 l 0 1389 l 1157 1389 l 1157 1157 l 463 1157 l 463 926 l 926 926 l 926 694 l 463 694 l 463 231 l 1157 231 l 1157 0 l 0 0 z "},"f":{"ha":1389,"x_min":0,"x_max":1157,"o":"m 0 0 l 0 1389 l 1157 1389 l 1157 1157 l 463 1157 l 463 694 l 926 694 l 926 463 l 463 463 l 463 0 l 0 0 z "},"g":{"ha":1389,"x_min":0,"x_max":1157,"o":"m 926 231 l 926 463 l 694 463 l 694 694 l 1157 694 l 1157 231 l 926 231 m 926 926 l 926 1157 l 1157 1157 l 1157 926 l 926 926 m 231 0 l 231 231 l 0 231 l 0 1157 l 231 1157 l 231 1389 l 926 1389 l 926 1157 l 463 1157 l 463 231 l 926 231 l 926 0 l 231 0 z "},"h":{"ha":1389,"x_min":0,"x_max":1157,"o":"m 0 0 l 0 1389 l 463 1389 l 463 926 l 926 926 l 926 1389 l 1157 1389 l 1157 0 l 926 0 l 926 694 l 463 694 l 463 0 l 0 0 z "},"i":{"ha":694,"x_min":0,"x_max":463,"o":"m 0 0 l 0 926 l 463 926 l 463 0 l 0 0 m 0 1157 l 0 1389 l 463 1389 l 463 1157 l 0 1157 z "},"j":{"ha":1389,"x_min":0,"x_max":1157,"o":"m 0 231 l 0 463 l 231 463 l 231 231 l 0 231 m 231 0 l 231 231 l 694 231 l 694 926 l 1157 926 l 1157 231 l 926 231 l 926 0 l 231 0 m 694 1157 l 694 1389 l 1157 1389 l 1157 1157 l 694 1157 z "},"k":{"ha":1389,"x_min":0,"x_max":1157,"o":"m 926 0 l 926 231 l 1157 231 l 1157 0 l 926 0 m 694 231 l 694 463 l 926 463 l 926 231 l 694 231 m 694 926 l 694 1157 l 926 1157 l 926 926 l 694 926 m 0 0 l 0 1389 l 463 1389 l 463 926 l 694 926 l 694 463 l 463 463 l 463 0 l 0 0 m 926 1157 l 926 1389 l 1157 1389 l 1157 1157 l 926 1157 z "},"l":{"ha":926,"x_min":0,"x_max":694,"o":"m 0 0 l 0 1389 l 463 1389 l 463 231 l 694 231 l 694 0 l 0 0 z "},"m":{"ha":1620,"x_min":0,"x_max":1389,"o":"m 694 926 l 694 1157 l 926 1157 l 926 926 l 694 926 m 0 0 l 0 1389 l 694 1389 l 694 1157 l 463 1157 l 463 0 l 0 0 m 1157 0 l 1157 1157 l 926 1157 l 926 1389 l 1389 1389 l 1389 0 l 1157 0 z "},"n":{"ha":1389,"x_min":0,"x_max":1157,"o":"m 926 0 l 926 1157 l 1157 1157 l 1157 0 l 926 0 m 0 0 l 0 1389 l 926 1389 l 926 1157 l 463 1157 l 463 0 l 0 0 z "},"o":{"ha":1389,"x_min":0,"x_max":1157,"o":"m 926 231 l 926 1157 l 1157 1157 l 1157 231 l 926 231 m 231 0 l 231 231 l 0 231 l 0 1157 l 231 1157 l 231 1389 l 926 1389 l 926 1157 l 463 1157 l 463 231 l 926 231 l 926 0 l 231 0 z "},"p":{"ha":1389,"x_min":0,"x_max":1157,"o":"m 926 694 l 926 1157 l 1157 1157 l 1157 694 l 926 694 m 0 0 l 0 1389 l 926 1389 l 926 1157 l 463 1157 l 463 694 l 926 694 l 926 463 l 463 463 l 463 0 l 0 0 z "},"q":{"ha":1389,"x_min":0,"x_max":1157,"o":"m 231 0 l 231 231 l 0 231 l 0 1157 l 231 1157 l 231 1389 l 926 1389 l 926 1157 l 463 1157 l 463 231 l 694 231 l 694 463 l 926 463 l 926 1157 l 1157 1157 l 1157 347 l 1042 347 l 1042 231 l 1157 231 l 1157 0 l 926 0 l 926 116 l 810 116 l 810 0 l 231 0 z "},"r":{"ha":1389,"x_min":0,"x_max":1157,"o":"m 926 0 l 926 463 l 1157 463 l 1157 0 l 926 0 m 926 694 l 926 1157 l 1157 1157 l 1157 694 l 926 694 m 0 0 l 0 1389 l 926 1389 l 926 1157 l 463 1157 l 463 694 l 926 694 l 926 463 l 463 463 l 463 0 l 0 0 z "},"s":{"ha":1389,"x_min":0,"x_max":1157,"o":"m 0 0 l 0 231 l 926 231 l 926 0 l 0 0 m 926 231 l 926 694 l 1157 694 l 1157 231 l 926 231 m 231 694 l 231 926 l 0 926 l 0 1157 l 231 1157 l 231 1389 l 1157 1389 l 1157 1157 l 463 1157 l 463 926 l 926 926 l 926 694 l 231 694 z "},"t":{"ha":1157,"x_min":0,"x_max":926,"o":"m 231 0 l 231 1157 l 0 1157 l 0 1389 l 926 1389 l 926 1157 l 694 1157 l 694 0 l 231 0 z "},"u":{"ha":1389,"x_min":0,"x_max":1157,"o":"m 231 0 l 231 231 l 0 231 l 0 1389 l 463 1389 l 463 231 l 926 231 l 926 1389 l 1157 1389 l 1157 0 l 231 0 z "},"v":{"ha":1389,"x_min":0,"x_max":1157,"o":"m 463 0 l 463 231 l 231 231 l 231 463 l 0 463 l 0 1389 l 463 1389 l 463 463 l 926 463 l 926 231 l 694 231 l 694 0 l 463 0 m 926 463 l 926 1389 l 1157 1389 l 1157 463 l 926 463 z "},"w":{"ha":1620,"x_min":0,"x_max":1389,"o":"m 926 0 l 926 231 l 1157 231 l 1157 0 l 926 0 m 694 231 l 694 463 l 926 463 l 926 231 l 694 231 m 231 0 l 231 231 l 0 231 l 0 1389 l 463 1389 l 463 231 l 694 231 l 694 0 l 231 0 m 1157 231 l 1157 1389 l 1389 1389 l 1389 231 l 1157 231 z "},"x":{"ha":1620,"x_min":0,"x_max":1389,"o":"m 1157 0 l 1157 231 l 1389 231 l 1389 0 l 1157 0 m 926 231 l 926 463 l 1157 463 l 1157 231 l 926 231 m 926 926 l 926 1157 l 1157 1157 l 1157 926 l 926 926 m 0 0 l 0 231 l 231 231 l 231 463 l 463 463 l 463 926 l 231 926 l 231 1157 l 0 1157 l 0 1389 l 463 1389 l 463 1157 l 694 1157 l 694 926 l 926 926 l 926 463 l 694 463 l 694 231 l 463 231 l 463 0 l 0 0 m 1157 1157 l 1157 1389 l 1389 1389 l 1389 1157 l 1157 1157 z "},"y":{"ha":1389,"x_min":0,"x_max":1157,"o":"m 463 0 l 463 694 l 231 694 l 231 926 l 0 926 l 0 1389 l 463 1389 l 463 926 l 926 926 l 926 694 l 694 694 l 694 0 l 463 0 m 926 926 l 926 1389 l 1157 1389 l 1157 926 l 926 926 z "},"z":{"ha":1620,"x_min":0,"x_max":1389,"o":"m 0 0 l 0 231 l 231 231 l 231 463 l 463 463 l 463 694 l 694 694 l 694 926 l 926 926 l 926 1157 l 0 1157 l 0 1389 l 1389 1389 l 1389 926 l 1157 926 l 1157 694 l 926 694 l 926 463 l 694 463 l 694 231 l 1389 231 l 1389 0 l 0 0 z "},"{":{"ha":926,"x_min":0,"x_max":694,"o":"m 463 0 l 463 231 l 694 231 l 694 0 l 463 0 m 231 231 l 231 810 l 0 810 l 0 1042 l 231 1042 l 231 1620 l 463 1620 l 463 231 l 231 231 m 463 1620 l 463 1852 l 694 1852 l 694 1620 l 463 1620 z "},"|":{"ha":463,"x_min":0,"x_max":231,"o":"m 0 0 l 0 1852 l 231 1852 l 231 0 l 0 0 z "},"}":{"ha":926,"x_min":0,"x_max":694,"o":"m 0 0 l 0 231 l 231 231 l 231 0 l 0 0 m 231 231 l 231 1620 l 463 1620 l 463 1042 l 694 1042 l 694 810 l 463 810 l 463 231 l 231 231 m 0 1620 l 0 1852 l 231 1852 l 231 1620 l 0 1620 z "},"~":{"ha":1620,"x_min":0,"x_max":1389,"o":"m 0 1389 l 0 1620 l 231 1620 l 231 1389 l 0 1389 m 694 1389 l 694 1620 l 1157 1620 l 1157 1389 l 694 1389 m 231 1620 l 231 1852 l 694 1852 l 694 1620 l 231 1620 m 1157 1620 l 1157 1852 l 1389 1852 l 1389 1620 l 1157 1620 z "},"‘":{"ha":694,"x_min":0,"x_max":463,"o":"m 0 1157 l 0 1620 l 231 1620 l 231 1157 l 0 1157 m 231 1620 l 231 1852 l 463 1852 l 463 1620 l 231 1620 z "},"’":{"ha":694,"x_min":0,"x_max":463,"o":"m 0 1157 l 0 1389 l 231 1389 l 231 1157 l 0 1157 m 231 1389 l 231 1852 l 463 1852 l 463 1389 l 231 1389 z "},"“":{"ha":1389,"x_min":0,"x_max":1157,"o":"m 0 1157 l 0 1620 l 231 1620 l 231 1157 l 0 1157 m 694 1157 l 694 1620 l 926 1620 l 926 1157 l 694 1157 m 231 1620 l 231 1852 l 463 1852 l 463 1620 l 231 1620 m 926 1620 l 926 1852 l 1157 1852 l 1157 1620 l 926 1620 z "},"”":{"ha":1389,"x_min":0,"x_max":1157,"o":"m 0 1157 l 0 1389 l 231 1389 l 231 1157 l 0 1157 m 694 1157 l 694 1389 l 926 1389 l 926 1157 l 694 1157 m 231 1389 l 231 1852 l 463 1852 l 463 1389 l 231 1389 m 926 1389 l 926 1852 l 1157 1852 l 1157 1389 l 926 1389 z "}}}
